<?xml version="1.0" standalone="no"?>
<svg xmlns="http://www.w3.org/2000/svg" viewBox="0 0 220.6 29" width="220.6" height="29"><path fill="#fe4e01" fill-rule="nonzero" d="M3.29 17.18L3.29 17.18Q1.90 17.18 0.95 16.39Q0 15.60 0 14.11L0 14.11Q0 12.98 1.15 12.04Q2.30 11.09 4.78 10.61L4.78 10.61Q5.16 10.54 5.64 10.45Q6.12 10.37 6.65 10.27L6.65 10.27L6.65 8.38Q6.65 6.74 6.25 6.08Q5.86 5.42 5.02 5.42L5.02 5.42Q4.44 5.42 4.10 5.80Q3.77 6.17 3.67 7.08L3.67 7.08L3.62 7.34Q3.58 8.38 3.12 8.86Q2.66 9.34 1.99 9.34L1.99 9.34Q1.37 9.34 0.96 8.95Q0.55 8.57 0.55 7.92L0.55 7.92Q0.55 6.94 1.24 6.26Q1.92 5.59 3.05 5.26Q4.18 4.92 5.50 4.92L5.50 4.92Q7.63 4.92 8.80 5.96Q9.96 7.01 9.96 9.36L9.96 9.36L9.96 14.66Q9.96 15.74 10.97 15.74L10.97 15.74L11.50 15.74L11.71 15.94Q11.26 16.51 10.72 16.82Q10.18 17.14 9.19 17.14L9.19 17.14Q8.14 17.14 7.52 16.64Q6.91 16.15 6.72 15.34L6.72 15.34Q6 16.10 5.24 16.64Q4.49 17.18 3.29 17.18ZM4.75 15.72L4.75 15.72Q5.23 15.72 5.65 15.49Q6.07 15.26 6.65 14.78L6.65 14.78L6.65 10.75Q6.41 10.80 6.17 10.85Q5.93 10.90 5.62 10.94L5.62 10.94Q4.51 11.23 3.85 11.92Q3.19 12.60 3.19 13.75L3.19 13.75Q3.19 14.74 3.65 15.23Q4.10 15.72 4.75 15.72ZM17.30 17.18L17.30 17.18Q15.89 17.18 14.76 16.55Q13.63 15.91 12.97 14.58Q12.31 13.25 12.31 11.16L12.31 11.16Q12.31 9.05 13.06 7.67Q13.80 6.29 15.02 5.60Q16.25 4.92 17.69 4.92L17.69 4.92Q18.53 4.92 19.30 5.09Q20.06 5.26 20.66 5.59L20.66 5.59L20.66 2.47Q20.66 1.97 20.51 1.73Q20.35 1.49 19.85 1.39L19.85 1.39L19.39 1.30L19.39 1.06L23.76 0L24.02 0.22L23.93 3.58L23.93 15.31Q23.93 15.79 24.10 16.09Q24.26 16.39 24.72 16.51L24.72 16.51L24.94 16.58L24.94 16.82L20.83 17.09L20.62 16.22Q19.97 16.66 19.14 16.92Q18.31 17.18 17.30 17.18ZM18.70 16.30L18.70 16.30Q19.70 16.30 20.54 15.70L20.54 15.70L20.54 6.17Q19.66 5.59 18.72 5.59L18.72 5.59Q17.57 5.59 16.75 6.92Q15.94 8.26 15.94 11.11L15.94 11.11Q15.94 13.97 16.70 15.13Q17.47 16.30 18.70 16.30ZM32.06 17.18L32.06 17.18Q30.24 17.18 28.90 16.43Q27.55 15.67 26.82 14.28Q26.09 12.89 26.09 11.02L26.09 11.02Q26.09 9.14 26.87 7.78Q27.65 6.41 29.00 5.66Q30.36 4.92 32.06 4.92L32.06 4.92Q33.77 4.92 35.11 5.65Q36.46 6.38 37.24 7.75Q38.02 9.12 38.02 11.02L38.02 11.02Q38.02 12.91 37.28 14.29Q36.55 15.67 35.22 16.43Q33.89 17.18 32.06 17.18ZM32.06 16.70L32.06 16.70Q32.90 16.70 33.41 16.22Q33.91 15.74 34.14 14.52Q34.37 13.30 34.37 11.06L34.37 11.06Q34.37 8.81 34.14 7.58Q33.91 6.36 33.41 5.88Q32.90 5.40 32.06 5.40L32.06 5.40Q31.22 5.40 30.71 5.88Q30.19 6.36 29.96 7.58Q29.74 8.81 29.74 11.06L29.74 11.06Q29.74 13.30 29.96 14.52Q30.19 15.74 30.71 16.22Q31.22 16.70 32.06 16.70ZM44.90 22.34L39.07 22.34L39.07 22.10L39.36 22.01Q40.25 21.77 40.25 20.86L40.25 20.86L40.25 7.80Q40.25 7.27 40.07 7.01Q39.89 6.74 39.41 6.65L39.41 6.65L39.07 6.58L39.07 6.34L43.15 4.94L43.39 5.18L43.61 5.93Q44.40 5.45 45.37 5.18Q46.34 4.92 47.38 4.92L47.38 4.92Q49.44 4.92 50.65 6.49Q51.86 8.06 51.86 10.99L51.86 10.99Q51.86 13.87 50.53 15.53Q49.20 17.18 46.78 17.18L46.78 17.18Q44.88 17.18 43.58 16.63L43.58 16.63L43.58 20.78Q43.58 21.74 44.45 21.98L44.45 21.98L44.90 22.10L44.90 22.34ZM45.62 16.49L45.62 16.49Q46.82 16.49 47.53 15.24Q48.24 13.99 48.24 11.09L48.24 11.09Q48.24 8.18 47.57 7.02Q46.90 5.86 45.62 5.86L45.62 5.86Q44.74 5.86 43.66 6.43L43.66 6.43L43.66 16.10Q44.57 16.49 45.62 16.49ZM57.50 17.18L57.50 17.18Q55.97 17.18 55.12 16.42Q54.26 15.65 54.26 13.97L54.26 13.97L54.26 5.76L52.61 5.76L52.61 5.52L53.18 5.42Q53.93 5.26 54.47 4.94Q55.01 4.63 55.54 4.10L55.54 4.10L57.50 1.92L57.74 1.92L57.67 5.28L60.36 5.28L60.36 5.76L57.65 5.76L57.65 14.40Q57.65 15.24 58.02 15.67Q58.39 16.10 58.97 16.10L58.97 16.10Q59.47 16.10 59.86 15.85Q60.24 15.60 60.62 15.17L60.62 15.17L60.86 15.41Q60.38 16.22 59.54 16.70Q58.70 17.18 57.50 17.18ZM72.53 16.82L66.91 16.82L66.91 16.58L67.20 16.49Q68.06 16.20 68.06 15.29L68.06 15.29L68.06 2.47Q68.06 1.97 67.90 1.73Q67.73 1.49 67.25 1.37L67.25 1.37L66.89 1.27L66.89 1.03L71.11 0L71.50 0.22L71.40 3.60L71.40 6.60Q72.24 5.90 73.21 5.41Q74.18 4.92 75.36 4.92L75.36 4.92Q76.92 4.92 77.84 5.81Q78.77 6.70 78.77 8.54L78.77 8.54L78.77 15.31Q78.77 15.79 78.96 16.08Q79.15 16.37 79.63 16.51L79.63 16.51L79.82 16.58L79.82 16.82L74.21 16.82L74.21 16.58L74.50 16.51Q75.36 16.22 75.36 15.29L75.36 15.29L75.36 7.75Q75.36 6.79 75.04 6.43Q74.71 6.07 73.90 6.07L73.90 6.07Q73.37 6.07 72.74 6.28Q72.12 6.48 71.47 6.98L71.47 6.98L71.47 15.34Q71.47 16.27 72.34 16.54L72.34 16.54L72.53 16.58L72.53 16.82ZM84.26 17.18L84.26 17.18Q82.87 17.18 81.92 16.39Q80.98 15.60 80.98 14.11L80.98 14.11Q80.98 12.98 82.13 12.04Q83.28 11.09 85.75 10.61L85.75 10.61Q86.14 10.54 86.62 10.45Q87.10 10.37 87.62 10.27L87.62 10.27L87.62 8.38Q87.62 6.74 87.23 6.08Q86.83 5.42 85.99 5.42L85.99 5.42Q85.42 5.42 85.08 5.80Q84.74 6.17 84.65 7.08L84.65 7.08L84.60 7.34Q84.55 8.38 84.10 8.86Q83.64 9.34 82.97 9.34L82.97 9.34Q82.34 9.34 81.94 8.95Q81.53 8.57 81.53 7.92L81.53 7.92Q81.53 6.94 82.21 6.26Q82.90 5.59 84.02 5.26Q85.15 4.92 86.47 4.92L86.47 4.92Q88.61 4.92 89.77 5.96Q90.94 7.01 90.94 9.36L90.94 9.36L90.94 14.66Q90.94 15.74 91.94 15.74L91.94 15.74L92.47 15.74L92.69 15.94Q92.23 16.51 91.69 16.82Q91.15 17.14 90.17 17.14L90.17 17.14Q89.11 17.14 88.50 16.64Q87.89 16.15 87.70 15.34L87.70 15.34Q86.98 16.10 86.22 16.64Q85.46 17.18 84.26 17.18ZM85.73 15.72L85.73 15.72Q86.21 15.72 86.63 15.49Q87.05 15.26 87.62 14.78L87.62 14.78L87.62 10.75Q87.38 10.80 87.14 10.85Q86.90 10.90 86.59 10.94L86.59 10.94Q85.49 11.23 84.83 11.92Q84.17 12.60 84.17 13.75L84.17 13.75Q84.17 14.74 84.62 15.23Q85.08 15.72 85.73 15.72ZM99.02 22.34L93.19 22.34L93.19 22.10L93.48 22.01Q94.37 21.77 94.37 20.86L94.37 20.86L94.37 7.80Q94.37 7.27 94.19 7.01Q94.01 6.74 93.53 6.65L93.53 6.65L93.19 6.58L93.19 6.34L97.27 4.94L97.51 5.18L97.73 5.93Q98.52 5.45 99.49 5.18Q100.46 4.92 101.50 4.92L101.50 4.92Q103.56 4.92 104.77 6.49Q105.98 8.06 105.98 10.99L105.98 10.99Q105.98 13.87 104.65 15.53Q103.32 17.18 100.90 17.18L100.90 17.18Q99 17.18 97.70 16.63L97.70 16.63L97.70 20.78Q97.70 21.74 98.57 21.98L98.57 21.98L99.02 22.10L99.02 22.34ZM99.74 16.49L99.74 16.49Q100.94 16.49 101.65 15.24Q102.36 13.99 102.36 11.09L102.36 11.09Q102.36 8.18 101.69 7.02Q101.02 5.86 99.74 5.86L99.74 5.86Q98.86 5.86 97.78 6.43L97.78 6.43L97.78 16.10Q98.69 16.49 99.74 16.49ZM112.90 22.34L107.06 22.34L107.06 22.10L107.35 22.01Q108.24 21.77 108.24 20.86L108.24 20.86L108.24 7.80Q108.24 7.27 108.06 7.01Q107.88 6.74 107.40 6.65L107.40 6.65L107.06 6.58L107.06 6.34L111.14 4.94L111.38 5.18L111.60 5.93Q112.39 5.45 113.36 5.18Q114.34 4.92 115.37 4.92L115.37 4.92Q117.43 4.92 118.64 6.49Q119.86 8.06 119.86 10.99L119.86 10.99Q119.86 13.87 118.52 15.53Q117.19 17.18 114.77 17.18L114.77 17.18Q112.87 17.18 111.58 16.63L111.58 16.63L111.58 20.78Q111.58 21.74 112.44 21.98L112.44 21.98L112.90 22.10L112.90 22.34ZM113.62 16.49L113.62 16.49Q114.82 16.49 115.52 15.24Q116.23 13.99 116.23 11.09L116.23 11.09Q116.23 8.18 115.56 7.02Q114.89 5.86 113.62 5.86L113.62 5.86Q112.73 5.86 111.65 6.43L111.65 6.43L111.65 16.10Q112.56 16.49 113.62 16.49ZM123.82 3.67L123.82 3.67Q123 3.67 122.44 3.16Q121.87 2.64 121.87 1.85L121.87 1.85Q121.87 1.03 122.44 0.53Q123 0.02 123.82 0.02L123.82 0.02Q124.63 0.02 125.18 0.53Q125.74 1.03 125.74 1.85L125.74 1.85Q125.74 2.64 125.18 3.16Q124.63 3.67 123.82 3.67ZM126.60 16.82L120.98 16.82L120.98 16.58L121.32 16.49Q121.80 16.34 121.98 16.06Q122.16 15.77 122.16 15.29L122.16 15.29L122.16 7.78Q122.16 7.27 121.98 7.02Q121.80 6.77 121.32 6.67L121.32 6.67L120.98 6.60L120.98 6.36L125.38 4.94L125.62 5.18L125.54 8.59L125.54 15.31Q125.54 15.79 125.72 16.08Q125.90 16.37 126.36 16.51L126.36 16.51L126.60 16.58L126.60 16.82ZM133.30 16.82L127.66 16.82L127.66 16.58L127.99 16.49Q128.83 16.25 128.83 15.31L128.83 15.31L128.83 7.80Q128.83 7.27 128.66 7.02Q128.50 6.77 128.02 6.67L128.02 6.67L127.66 6.58L127.66 6.34L131.76 4.94L132 5.18L132.19 6.62Q133.03 5.88 134.09 5.40Q135.14 4.92 136.18 4.92L136.18 4.92Q137.76 4.92 138.61 5.78Q139.46 6.65 139.46 8.42L139.46 8.42L139.46 15.34Q139.46 16.27 140.38 16.51L140.38 16.51L140.59 16.58L140.59 16.82L134.93 16.82L134.93 16.58L135.24 16.49Q136.08 16.22 136.08 15.31L136.08 15.31L136.08 7.66Q136.08 6.12 134.54 6.12L134.54 6.12Q133.49 6.12 132.24 7.18L132.24 7.18L132.24 15.34Q132.24 16.27 133.08 16.51L133.08 16.51L133.30 16.58L133.30 16.82ZM147.55 4.92L147.55 4.92Q149.11 4.92 150.22 5.56Q151.32 6.19 151.91 7.28Q152.50 8.38 152.50 9.77L152.50 9.77Q152.50 10.03 152.47 10.31Q152.45 10.58 152.38 10.80L152.38 10.80L145.22 10.80Q145.25 13.39 146.15 14.53Q147.05 15.67 148.82 15.67L148.82 15.67Q150.02 15.67 150.77 15.29Q151.51 14.90 152.16 14.16L152.16 14.16L152.40 14.38Q151.66 15.70 150.42 16.44Q149.18 17.18 147.46 17.18L147.46 17.18Q145.75 17.18 144.43 16.45Q143.11 15.72 142.37 14.35Q141.62 12.98 141.62 11.09L141.62 11.09Q141.62 9.12 142.49 7.74Q143.35 6.36 144.71 5.64Q146.06 4.92 147.55 4.92ZM147.48 5.40L147.48 5.40Q146.78 5.40 146.29 5.82Q145.80 6.24 145.52 7.31Q145.25 8.38 145.22 10.32L145.22 10.32L149.33 10.32Q149.57 7.70 149.14 6.55Q148.70 5.40 147.48 5.40ZM157.85 17.18L157.85 17.18Q156.67 17.18 155.74 16.91Q154.80 16.63 154.01 16.22L154.01 16.22L154.03 13.37L154.27 13.37L155.09 14.81Q155.62 15.77 156.25 16.24Q156.89 16.70 157.87 16.70L157.87 16.70Q159.02 16.70 159.73 16.19Q160.44 15.67 160.44 14.81L160.44 14.81Q160.44 14.02 159.94 13.51Q159.43 13.01 158.06 12.60L158.06 12.60L157.06 12.29Q155.59 11.86 154.75 10.94Q153.91 10.03 153.91 8.71L153.91 8.71Q153.91 7.13 155.16 6.02Q156.41 4.92 158.74 4.92L158.74 4.92Q159.67 4.92 160.50 5.12Q161.33 5.33 162.10 5.74L162.10 5.74L161.95 8.33L161.71 8.33L160.87 6.84Q160.42 6.05 159.97 5.72Q159.53 5.40 158.64 5.40L158.64 5.40Q157.82 5.40 157.10 5.86Q156.38 6.31 156.38 7.15L156.38 7.15Q156.38 7.97 157.00 8.45Q157.61 8.93 158.81 9.34L158.81 9.34L159.89 9.65Q161.62 10.18 162.36 11.10Q163.10 12.02 163.10 13.32L163.10 13.32Q163.10 15.07 161.72 16.13Q160.34 17.18 157.85 17.18ZM168.31 17.18L168.31 17.18Q167.14 17.18 166.20 16.91Q165.26 16.63 164.47 16.22L164.47 16.22L164.50 13.37L164.74 13.37L165.55 14.81Q166.08 15.77 166.72 16.24Q167.35 16.70 168.34 16.70L168.34 16.70Q169.49 16.70 170.20 16.19Q170.90 15.67 170.90 14.81L170.90 14.81Q170.90 14.02 170.40 13.51Q169.90 13.01 168.53 12.60L168.53 12.60L167.52 12.29Q166.06 11.86 165.22 10.94Q164.38 10.03 164.38 8.71L164.38 8.71Q164.38 7.13 165.62 6.02Q166.87 4.92 169.20 4.92L169.20 4.92Q170.14 4.92 170.96 5.12Q171.79 5.33 172.56 5.74L172.56 5.74L172.42 8.33L172.18 8.33L171.34 6.84Q170.88 6.05 170.44 5.72Q169.99 5.40 169.10 5.40L169.10 5.40Q168.29 5.40 167.57 5.86Q166.85 6.31 166.85 7.15L166.85 7.15Q166.85 7.97 167.46 8.45Q168.07 8.93 169.27 9.34L169.27 9.34L170.35 9.65Q172.08 10.18 172.82 11.10Q173.57 12.02 173.57 13.32L173.57 13.32Q173.57 15.07 172.19 16.13Q170.81 17.18 168.31 17.18Z" transform="translate(0, 3.328)"></path><line x1="182.568" y1="2%" x2="182.568" y2="98%" stroke="#fe4e01" stroke-linecap="round"></line><g fill="#fea701" color="#fea701" transform="translate(191.568 0) scale(0.3186814)"><svg width="91.0" height="91.0" x="0.0" y="0.0" viewBox="0 0 91 91"><g><path d="M31.6,41.7c0.3,0,0.7-0.1,1-0.4c3.9-2.8,7.1-5.4,9.8-8.2c1.5-1.5,3.2-3.4,4.5-5.8c0.5-1,1.2-2.4,1.1-4   c-0.1-3.4-1.4-6.1-4-8.3c-3.4-2.8-8.5-2.6-11.7,0.6c-0.3,0.3-0.5,0.5-0.7,0.8c-2-2.6-5.1-3.9-8.4-3.3c-2.7,0.5-4.8,2-6.3,4.4   c-2.1,3.4-2.3,6.7-0.5,9.8c0.9,1.7,2.1,3.3,3.7,4.9c2.8,3,6.2,5.9,10.6,9C30.8,41.5,31.2,41.7,31.6,41.7z"></path><path d="M83.8,63.2c-0.7,0.1-3.3,0.4-5.8,0c-0.1,0-0.2,0-0.3,0.1c-0.1,0.1-0.1,0.2,0,0.3c0.3,0.6,0.4,1,0.5,1.1   c0.2,0.5-0.1,1-0.6,1.2c-0.5,0.2-1-0.1-1.2-0.6c0-0.1-3.4-9.5-14.3-13c-9.3-2.9-17.5-3.4-18.4-3.5c0,0-2.9-0.1-3.6,1.4   c-0.4,0.9-0.3,1.9,0.1,2.7c0.4,0.7,1,1.2,1.8,1.4c8.6,1.5,13.5,6,13.7,6.1c0.3,0.3,0.4,0.7,0.2,1.1c-0.2,0.4-0.5,0.6-0.9,0.6   L36.6,61c0,0-0.1,0-0.1,0c0,0-0.1,0-0.1,0l-7.7-0.5c-0.1,0-0.2,0-0.3-0.1c-0.1-0.1-13.7-5.5-18-6.1c-0.3-0.1-3-0.5-3.7,1.1   l-0.1,0.2c-0.4,0.8-1.1,2.2,1.7,3.8c4.4,2.6,36.6,14.3,38,14.8l25.6,5.3l10.7,0.9c0,0,0,0,0,0c0.1,0,0.2,0,0.2-0.1   c4.4-5,2.4-13.6,1.4-17C84.1,63.3,84,63.2,83.8,63.2z"></path><path d="M23.3,55c-0.1,0-0.1-0.1-0.2-0.1l-4.4-3.2c-0.9-0.7-2.7-1.6-3.4-1.2C14,51,14,52.5,14.1,53.2c0,0.1,0.1,0.2,0.2,0.3   c5.5,1.6,13.6,4.9,14.6,5.2c0,0,0.1,0,0.1,0l1,0.1c0,0,0,0,0,0c0.1,0,0.3-0.1,0.3-0.2c0-0.1,0-0.3-0.2-0.4L23.3,55z"></path></g></svg></g></svg>